<svg id="Layer_1" data-name="Layer 1" xmlns="http://www.w3.org/2000/svg" viewBox="0 0 30 30"><defs><style>.cls-1{fill:#444;}</style></defs><title>chat</title><path class="cls-1" d="M8.13,19.83a.87.87,0,0,1-.59-.19.83.83,0,0,1-.27-.51V19a.61.61,0,0,1,0-.14l.14-.34a.55.55,0,0,1,.11-.15l.05-.06.22-.25A1.76,1.76,0,0,0,8,17.82l.18-.24a1.94,1.94,0,0,0,.21-.33h0a5.79,5.79,0,0,1-1.59-1.61,4.39,4.39,0,0,1-.73-2.41,4.47,4.47,0,0,1,1-2.76A6.31,6.31,0,0,1,9.6,8.52a9,9,0,0,1,6.91,0,6.41,6.41,0,0,1,2.56,1.94,4.45,4.45,0,0,1,0,5.52,6.41,6.41,0,0,1-2.56,1.94h0a8.8,8.8,0,0,1-5,.57A8.15,8.15,0,0,1,9,19.67c-.24.06-.52.11-.85.16Zm4.93-11A7.53,7.53,0,0,0,10,9.44a5.4,5.4,0,0,0-2.16,1.63,3.42,3.42,0,0,0-.76,2.15,3.37,3.37,0,0,0,.57,1.87,4.91,4.91,0,0,0,1.63,1.53l.37.22-.16.4a4.9,4.9,0,0,1-.21.46,2.27,2.27,0,0,1-.27.44l-.2.27a4.19,4.19,0,0,1-.28.33h0l.24-.05a7.23,7.23,0,0,0,2.39-1.14l.18-.13.21,0A7.79,7.79,0,0,0,16.11,17a5.4,5.4,0,0,0,2.16-1.63,3.42,3.42,0,0,0,0-4.3,5.4,5.4,0,0,0-2.16-1.63A7.52,7.52,0,0,0,13.06,8.83Z"/><path class="cls-1" d="M21.91,23.08h-.07A8.39,8.39,0,0,1,21,22.9a8.28,8.28,0,0,1-2.6-1.22,8.37,8.37,0,0,1-6.23-1.26l-1.5-1.05,1.83.13c.34,0,.6,0,.78,0A8.92,8.92,0,0,0,16,19.12a7.68,7.68,0,0,0,2.33-1.2A6.07,6.07,0,0,0,20,16a4.94,4.94,0,0,0,.37-3.64L20,11.15l1.08.63a6.06,6.06,0,0,1,2.07,1.91,4.52,4.52,0,0,1,.79,2.56,4.58,4.58,0,0,1-.74,2.49,6.22,6.22,0,0,1-1.62,1.66v0a1.44,1.44,0,0,0,.19.31L22,21l.21.25c.13.14.2.23.24.28l.13.16.07.1.05.13.17.49-.18.1a.83.83,0,0,1-.75.55Zm.64-.48-.18.1A.52.52,0,0,0,22.55,22.6Zm-3.95-2,.18.13a7.13,7.13,0,0,0,2.43,1.18l.28.07,0-.06a4.19,4.19,0,0,1-.28-.33L21,21.32a3.4,3.4,0,0,1-.28-.45q-.11-.21-.21-.48L20.31,20l.36-.21a5.42,5.42,0,0,0,1.67-1.59h0a3.55,3.55,0,0,0,.58-1.95,3.5,3.5,0,0,0-.62-2,4.88,4.88,0,0,0-.79-.92c0,.13,0,.26,0,.38a5.86,5.86,0,0,1-.68,2.75,7.1,7.1,0,0,1-1.93,2.26,8.74,8.74,0,0,1-2.63,1.35,9.79,9.79,0,0,1-1.8.4,8.17,8.17,0,0,0,3.9.19Zm3.46,1.13a.33.33,0,0,0-.13.07Z"/></svg>