<svg id="Layer_1" data-name="Layer 1" xmlns="http://www.w3.org/2000/svg" viewBox="0 0 30 30"><defs><style>.cls-1{fill:#444;}</style></defs><title>comapny-ranking</title><g id="Artboard-Copy-4"><path id="Shape" class="cls-1" d="M21.29,14.71a.43.43,0,0,1-.38-.17.77.77,0,0,1-.1-.18.83.83,0,0,1,0-.22h-.57a1.25,1.25,0,0,0,.07.45,1.12,1.12,0,0,0,.22.33,1,1,0,0,0,.35.21,1.33,1.33,0,0,0,.45.07,1.47,1.47,0,0,0,.42-.06,1.31,1.31,0,0,0,.35-.19.89.89,0,0,0,.24-.3.91.91,0,0,0,.09-.41.69.69,0,0,0-.14-.43.6.6,0,0,0-.38-.23h0a.54.54,0,0,0,.31-.22.7.7,0,0,0,.1-.38.68.68,0,0,0-.09-.35.78.78,0,0,0-.23-.25,1.14,1.14,0,0,0-.31-.16,1.49,1.49,0,0,0-.36-.05,1.07,1.07,0,0,0-.41.07,1,1,0,0,0-.32.21.76.76,0,0,0-.2.32,1.3,1.3,0,0,0-.09.41h.57A.55.55,0,0,1,21,12.8a.39.39,0,0,1,.34-.15.45.45,0,0,1,.29.1.34.34,0,0,1,.12.29.32.32,0,0,1-.06.2.33.33,0,0,1-.15.11.65.65,0,0,1-.21.05h-.2v.42h.23l.22,0a.4.4,0,0,1,.16.13.38.38,0,0,1,.07.26.42.42,0,0,1-.14.33A.53.53,0,0,1,21.29,14.71ZM8.15,10.81A1.08,1.08,0,0,1,8,11l-.2.13c-.13.09-.25.17-.36.26a1.93,1.93,0,0,0-.3.27,1.27,1.27,0,0,0-.2.34,1.16,1.16,0,0,0-.07.44H9V11.9H7.59a1.55,1.55,0,0,1,.25-.26l.3-.21.3-.2A2,2,0,0,0,8.71,11a1.12,1.12,0,0,0,.19-.29A1,1,0,0,0,9,10.34a.86.86,0,0,0-.3-.67.88.88,0,0,0-.33-.18A1.21,1.21,0,0,0,8,9.43a1.16,1.16,0,0,0-.47.09.86.86,0,0,0-.34.25,1,1,0,0,0-.2.38,1.14,1.14,0,0,0-.06.46h.57a.85.85,0,0,1,0-.23.71.71,0,0,1,.07-.22A.46.46,0,0,1,7.71,10a.38.38,0,0,1,.22-.06.45.45,0,0,1,.32.12.45.45,0,0,1,.12.33.48.48,0,0,1-.06.24A.9.9,0,0,1,8.15,10.81Zm6.13-2.58h.6V5.3h-.47a.78.78,0,0,1-.11.28.49.49,0,0,1-.2.18.67.67,0,0,1-.26.1l-.3,0v.45h.74Zm9.09,15H18.28V17.6a.18.18,0,0,1,.18-.18h4.88a.18.18,0,0,1,.18.18l0,5.48A.18.18,0,0,1,23.37,23.25ZM5.65,23.08l0-8.6a.18.18,0,0,1,.18-.18h4.89a.18.18,0,0,1,.18.18v8.77H5.82A.18.18,0,0,1,5.65,23.08ZM12,10.33a.18.18,0,0,1,.18-.18h4.91a.18.18,0,0,1,.18.18V23.25H12Zm6.72,6a1.29,1.29,0,0,0-.4.06V10.1a1,1,0,0,0-1-1H12.14a1.23,1.23,0,0,0-1.23,1.23v3a1.29,1.29,0,0,0-.4-.06H5.85A1.24,1.24,0,0,0,4.6,14.48v8.6A1.22,1.22,0,0,0,5.82,24.3H23.37a1.23,1.23,0,0,0,1.23-1.23V17.6a1.26,1.26,0,0,0-1.26-1.24Z"/></g></svg>