<svg id="Layer_1" data-name="Layer 1" xmlns="http://www.w3.org/2000/svg" viewBox="0 0 30 30"><defs><style>.cls-1{fill:#444;}</style></defs><title>emotion-analysis</title><g id="Artboard-Copy-3"><g id="Group-67"><path id="Shape" class="cls-1" d="M15,5A10,10,0,1,0,25,15,10,10,0,0,0,15,5Zm0,1.22A8.78,8.78,0,1,1,6.22,15,8.77,8.77,0,0,1,15,6.22Z"/><path id="Shape-2" data-name="Shape" class="cls-1" d="M19.86,18a.63.63,0,0,0-.5-1,.71.71,0,0,0-.52.34,4.51,4.51,0,0,1-3.84,2,4.51,4.51,0,0,1-3.84-2,.71.71,0,0,0-.52-.34.63.63,0,0,0-.5,1A5.69,5.69,0,0,0,15,20.64,5.69,5.69,0,0,0,19.86,18Z"/><path id="Shape-3" data-name="Shape" class="cls-1" d="M11.36,11.36a.91.91,0,0,0,0,1.82.91.91,0,0,0,0-1.82Z"/><path id="Shape-4" data-name="Shape" class="cls-1" d="M17.73,11.36a.91.91,0,1,0,.91.91A.92.92,0,0,0,17.73,11.36Z"/></g></g></svg>