<svg id="Layer_1" data-name="Layer 1" xmlns="http://www.w3.org/2000/svg" viewBox="0 0 30 30"><defs><style>.cls-1{fill:#444;}</style></defs><title>enterprise-analysis</title><g id="Artboard-Copy"><g id="icon"><polygon id="Shape" class="cls-1" points="12.97 17.02 10.6 14.83 9.52 15.82 12.97 19 19.48 12.99 18.41 12 12.97 17.02"/><path id="Shape-2" data-name="Shape" class="cls-1" d="M10.65,5V6.16H8.54a2,2,0,0,0-2,2V23a2,2,0,0,0,2,2H21.46a2,2,0,0,0,2-2V8.16a2,2,0,0,0-2-2H19.35V5ZM12.1,6.4h5.8v.93H12.1ZM22,8.56v14a1,1,0,0,1-1,1H9a1,1,0,0,1-1-1v-14a1,1,0,0,1,1-1h1.66V8.72h8.7V7.56H21A1,1,0,0,1,22,8.56Z"/></g></g></svg>