<svg id="Layer_1" data-name="Layer 1" xmlns="http://www.w3.org/2000/svg" viewBox="0 0 30 30"><defs><style>.cls-1{fill:#444;}</style></defs><title>report</title><path id="Shape" class="cls-1" d="M24.75,16.06H21.56V8.31a2,2,0,0,0-2-2H9.3a2,2,0,0,0-2,2V19.52a2.77,2.77,0,0,0,2.77,2.77H21a4.4,4.4,0,0,0,4.4-4.39V16.69A.61.61,0,0,0,24.75,16.06Zm-4.39.6v4.4H10.07A1.57,1.57,0,0,1,8.5,19.49v-11a1,1,0,0,1,1-1h9.86a1,1,0,0,1,1,1Zm3.79,1.21A3.17,3.17,0,0,1,21.56,21V17.27h2.59ZM10.67,10a.6.6,0,0,1,.6-.6h6.32a.6.6,0,0,1,0,1.2H11.27A.6.6,0,0,1,10.67,10Zm0,3.1a.6.6,0,0,1,.6-.6h6.32a.6.6,0,0,1,0,1.2H11.27A.6.6,0,0,1,10.67,13.05Z"/><path class="cls-1" d="M10.67,16.05a.6.6,0,0,1,.6-.6h6.32a.6.6,0,0,1,0,1.2H11.27A.6.6,0,0,1,10.67,16.05Z"/></svg>