<?xml version="1.0" encoding="UTF-8"?>
<svg width="18px" height="18px" viewBox="0 0 18 18" version="1.1" xmlns="http://www.w3.org/2000/svg" xmlns:xlink="http://www.w3.org/1999/xlink">
    <!-- Generator: Sketch 51.3 (57544) - http://www.bohemiancoding.com/sketch -->
    <title>landmine</title>
    <desc>Created with Sketch.</desc>
    <defs></defs>
    <g id="landmine" stroke="none" stroke-width="1" fill="none" fill-rule="evenodd">
        <g id="noun_Mine_466407-Copy-3" fill="#D0021B" fill-rule="nonzero">
            <path d="M17.3636707,10.5574253 L16.7709126,10.2458109 C16.835379,9.83999187 16.869367,9.42382877 16.869367,8.99990764 C16.869367,8.44927196 16.812474,7.91193576 16.7049685,7.3934405 L17.2820256,7.05504246 C18.1862172,6.52491015 18.0691064,6.12500198 17.0219435,6.16674759 L16.3536361,6.19353128 C16.008584,5.28972034 15.5019042,4.46607575 14.868693,3.75769338 L15.2002607,3.17436313 C15.7180236,2.26316359 15.4167495,1.97574691 14.5306602,2.53561835 L13.9639473,2.89378091 C13.2284027,2.29493458 12.3823971,1.82686655 11.4613963,1.52374908 L11.4567783,0.855080456 C11.4499438,-0.192992966 11.0450433,-0.291446109 10.5577588,0.636377789 L10.2461406,1.22912851 C9.84031653,1.16447823 9.42414827,1.13049066 9.00022189,1.13049066 C8.44939466,1.13049066 7.9120518,1.1873829 7.39355012,1.29488709 L7.05496316,0.717837144 C6.52482428,-0.186343223 6.12528059,-0.0692338554 6.166842,0.978100706 L6.19362602,1.6463999 C5.28980388,1.99144769 4.46614908,2.49812118 3.75775793,3.13150923 L3.17442045,2.79994564 C2.26320961,2.28200453 1.97578937,2.58327484 2.53566775,3.46935313 L2.89383475,4.03624374 C2.294981,4.77214866 1.82672244,5.61795906 1.52378594,6.5389485 L0.85492431,6.54338166 C-0.192977385,6.55021612 -0.291431748,6.95511159 0.63640365,7.44239 L1.22916172,7.75400436 C1.16451064,8.15982341 1.13052264,8.57598651 1.13052264,9.00009236 C1.13052264,9.55054333 1.18741559,10.0880642 1.29492111,10.6063748 L0.717864014,10.9447728 C-0.186327559,11.4749051 -0.0694014579,11.8748133 0.977946085,11.8330677 L1.64625356,11.806284 C1.99130563,12.7100949 2.4979854,13.5337395 3.13119658,14.2421219 L2.7998136,14.8254522 C2.28186607,15.7366517 2.5829554,16.0242531 3.46922939,15.4641969 L4.03631174,15.1062191 C4.77185635,15.7048807 5.61786195,16.1731335 6.53867808,16.4762509 L6.5431113,17.1449195 C6.55013056,18.192993 6.95484634,18.2914461 7.4423155,17.3636222 L7.75393372,16.7708715 C8.15975781,16.8353371 8.57592606,16.8693246 9.00022189,16.8693246 C9.55067968,16.8693246 10.0880225,16.8124324 10.6068937,16.7049282 L10.9449265,17.2819781 C11.4750653,18.1861585 11.874609,18.0690491 11.8332323,17.0218993 L11.8064483,16.3536001 C12.7102705,16.0085523 13.5339253,15.5018788 14.2423164,14.8686755 L14.8256539,15.2002391 C15.7364953,15.7179955 16.0241002,15.4167252 15.4644066,14.5306469 L15.1064243,13.963941 C15.7050933,13.2284055 16.1733519,12.3824104 16.4764731,11.4612362 L17.14515,11.4569878 C18.1930517,11.4495992 18.2913214,11.044519 17.3636707,10.5574253 Z" id="Shape"></path>
        </g>
    </g>
</svg>