<svg id="Layer_1" data-name="Layer 1" xmlns="http://www.w3.org/2000/svg" viewBox="0 0 30 30"><defs><style>.cls-1{fill:#444;}</style></defs><title>Me</title><g id="Artboard-Copy-2"><path id="Shape" class="cls-1" d="M23.42,25A1.57,1.57,0,0,0,25,23.41a9.48,9.48,0,0,0-5.38-8.56,5.38,5.38,0,1,0-9.5-3.46,5.28,5.28,0,0,0,1.26,3.46A9.53,9.53,0,0,0,6,23.41,1.57,1.57,0,0,0,7.58,25ZM15.5,7.24a4.12,4.12,0,1,1-4.12,4.12A4.11,4.11,0,0,1,15.5,7.24ZM7.27,23.41a8.28,8.28,0,0,1,5.13-7.64,5.25,5.25,0,0,0,3.1,1,5.54,5.54,0,0,0,3.1-1,8.3,8.3,0,0,1,5.13,7.64.3.3,0,0,1-.31.32H7.58A.31.31,0,0,1,7.27,23.41Z"/></g></svg>